<?xml version="1.0" encoding="UTF-8"?>
<svg width="42px" height="42px" viewBox="0 0 42 42" version="1.1" xmlns="http://www.w3.org/2000/svg" xmlns:xlink="http://www.w3.org/1999/xlink">
    <!-- Generator: Sketch 46.2 (44496) - http://www.bohemiancoding.com/sketch -->
    <title>ic_back</title>
    <desc>Created with Sketch.</desc>
    <defs>
        <circle id="path-1" cx="21.25" cy="21.25" r="20.25"></circle>
        <filter x="-40.7%" y="-40.7%" width="181.5%" height="181.5%" filterUnits="objectBoundingBox" id="filter-2">
            <feOffset dx="0" dy="0" in="SourceAlpha" result="shadowOffsetOuter1"></feOffset>
            <feGaussianBlur stdDeviation="5.5" in="shadowOffsetOuter1" result="shadowBlurOuter1"></feGaussianBlur>
            <feColorMatrix values="0 0 0 0 0   0 0 0 0 0   0 0 0 0 0  0 0 0 0.1 0" type="matrix" in="shadowBlurOuter1"></feColorMatrix>
        </filter>
    </defs>
    <g id="Symbols" stroke="none" stroke-width="1" fill="none" fill-rule="evenodd">
        <g id="ic_back">
            <g>
                <g id="arrow_bg">
                    <use fill="black" fill-opacity="1" filter="url(#filter-2)" xlink:href="#path-1"></use>
                    <use fill="#FFFFFF" fill-rule="evenodd" xlink:href="#path-1"></use>
                </g>
                <path d="M19,16.75 L19,26.875 L19,26.875 C19,27.4963203 18.4963203,28 17.875,28 L17.875,28 C17.2536797,28 16.75,27.4963203 16.75,26.875 L16.75,15.625 L16.75,15.625 C16.75,15.3143398 16.8759199,15.0330898 17.0795049,14.8295049 C17.2830898,14.6259199 17.5643398,14.5 17.875,14.5 L17.875,14.5 L29.125,14.5 L29.125,14.5 C29.7463203,14.5 30.25,15.0036797 30.25,15.625 L30.25,15.625 C30.25,16.2463203 29.7463203,16.75 29.125,16.75 L19,16.75 Z" id="arrow" fill="#5C5C5C" transform="translate(23.500000, 21.250000) rotate(-45.000000) translate(-23.500000, -21.250000) "></path>
                <rect id="Rectangle-6" x="0" y="0" width="42" height="42"></rect>
            </g>
        </g>
    </g>
</svg>