<?xml version="1.0" encoding="UTF-8"?>
<svg width="42px" height="42px" viewBox="0 0 42 42" version="1.1" xmlns="http://www.w3.org/2000/svg" xmlns:xlink="http://www.w3.org/1999/xlink">
    <!-- Generator: Sketch 46.2 (44496) - http://www.bohemiancoding.com/sketch -->
    <title>ic_share</title>
    <desc>Created with Sketch.</desc>
    <defs>
        <circle id="path-1" cx="21.25" cy="21.25" r="20.25"></circle>
        <filter x="-40.7%" y="-40.7%" width="181.5%" height="181.5%" filterUnits="objectBoundingBox" id="filter-2">
            <feOffset dx="0" dy="0" in="SourceAlpha" result="shadowOffsetOuter1"></feOffset>
            <feGaussianBlur stdDeviation="5.5" in="shadowOffsetOuter1" result="shadowBlurOuter1"></feGaussianBlur>
            <feColorMatrix values="0 0 0 0 0   0 0 0 0 0   0 0 0 0 0  0 0 0 0.1 0" type="matrix" in="shadowBlurOuter1"></feColorMatrix>
        </filter>
    </defs>
    <g id="Symbols" stroke="none" stroke-width="1" fill="none" fill-rule="evenodd">
        <g id="ic_share">
            <g>
                <g id="arrow_bg-copy">
                    <use fill="black" fill-opacity="1" filter="url(#filter-2)" xlink:href="#path-1"></use>
                    <use fill="#FFFFFF" fill-rule="evenodd" xlink:href="#path-1"></use>
                </g>
                <g id="ic_share_black_24px" transform="translate(9.000000, 9.000000)">
                    <polygon id="Shape" points="0 0 24 0 24 24 0 24"></polygon>
                    <path d="M18,16.08 C17.24,16.08 16.56,16.38 16.04,16.85 L8.91,12.7 C8.96,12.47 9,12.24 9,12 C9,11.76 8.96,11.53 8.91,11.3 L15.96,7.19 C16.5,7.69 17.21,8 18,8 C19.66,8 21,6.66 21,5 C21,3.34 19.66,2 18,2 C16.34,2 15,3.34 15,5 C15,5.24 15.04,5.47 15.09,5.7 L8.04,9.81 C7.5,9.31 6.79,9 6,9 C4.34,9 3,10.34 3,12 C3,13.66 4.34,15 6,15 C6.79,15 7.5,14.69 8.04,14.19 L15.16,18.35 C15.11,18.56 15.08,18.78 15.08,19 C15.08,20.61 16.39,21.92 18,21.92 C19.61,21.92 20.92,20.61 20.92,19 C20.92,17.39 19.61,16.08 18,16.08 Z" id="Shape" fill="#5C5C5C" fill-rule="nonzero"></path>
                </g>
                <rect id="Rectangle-5" x="0" y="0" width="42" height="42"></rect>
            </g>
        </g>
    </g>
</svg>