<?xml version="1.0" encoding="UTF-8"?>
<svg width="24px" height="24px" viewBox="0 0 24 24" version="1.1" xmlns="http://www.w3.org/2000/svg" xmlns:xlink="http://www.w3.org/1999/xlink">
    <!-- Generator: Sketch 46.2 (44496) - http://www.bohemiancoding.com/sketch -->
    <title>ic_密码</title>
    <desc>Created with Sketch.</desc>
    <defs></defs>
    <g id="Symbols" stroke="none" stroke-width="1" fill="none" fill-rule="evenodd" opacity="0.798743207">
        <g id="ic_密码">
            <g transform="translate(12.000000, 12.000000) rotate(-360.000000) translate(-12.000000, -12.000000) ">
                <g id="Group-8" transform="translate(3.000000, 2.000000)" fill-rule="nonzero" fill="#000000">
                    <path d="M16.1886141,7.36836698 L2.87751581,7.36836698 C2.84646348,4.8002397 4.45083381,2.05955051 7.75273145,1.26779586 C10.0299022,0.760260823 12.4830362,1.63322108 13.9528465,3.42989511 C14.1184589,3.66336122 14.6049454,3.83592314 15.0086256,3.55170352 C15.453709,3.13552479 15.0707303,2.66859255 14.9672225,2.56708555 C13.1247844,0.56739751 10.3300748,-0.43752186 7.5146636,0.181670883 C3.95399655,0.963274837 1.52156412,3.96788224 1.43875791,7.44957258 C0.724554342,7.6931894 0,8.45449195 0,9.1244382 L0,18.4630828 C0,19.2751389 1.07648074,20.1176471 1.90454284,20.1176471 L16.1575618,20.1176471 C16.9856239,20.1176471 18,19.2548375 18,18.4427814 L18,9.063534 C17.9896492,8.25147794 17.213341,7.36836698 16.1886141,7.36836698 Z M16.8510638,17.6611775 C16.8510638,18.4732335 16.3231742,18.9909193 15.4951121,18.9909193 L2.49453709,18.9909193 C1.66647499,18.9909193 1.13858539,18.4732335 1.13858539,17.6611775 L1.14893617,9.81468585 C1.14893617,9.00262979 1.67682576,8.48494406 2.50488787,8.48494406 L15.4951121,8.48494406 C16.3231742,8.48494406 16.8510638,9.00262979 16.8510638,9.81468585 L16.8510638,17.6611775 Z" id="Shape"></path>
                    <path d="M9,10.5882353 C8.1260007,10.5882353 7.41176471,11.4221274 7.41176471,12.442548 C7.41176471,13.1776897 7.78767838,13.8140811 8.32335538,14.1103322 L8.32335538,16.1511734 C8.32335538,16.590064 8.62408632,16.9411765 9,16.9411765 C9.37591368,16.9411765 9.67664462,16.590064 9.67664462,16.1511734 L9.67664462,14.1103322 C10.2123216,13.8140811 10.5882353,13.1776897 10.5882353,12.442548 C10.5882353,11.4221274 9.8739993,10.5882353 9,10.5882353 Z" id="Shape"></path>
                    <path d="M15.3529412,5.29411765 C15.6445013,5.29411765 15.8823529,5.05626598 15.8823529,4.76470588 C15.8823529,4.47314578 15.6445013,4.23529412 15.3529412,4.23529412 C15.0613811,4.23529412 14.8235294,4.47314578 14.8235294,4.76470588 C14.8235294,5.05626598 15.0613811,5.29411765 15.3529412,5.29411765 Z" id="Shape"></path>
                </g>
                <rect id="Rectangle-31" opacity="0.802139946" x="0" y="0" width="24" height="24"></rect>
            </g>
        </g>
    </g>
</svg>